# xmcd
#
# Track frame offsets: 
#        182
#        13295
#        24445
#        36412
#        47862
#        60072
#        71280
#        82222
#        97090
#        110155
#        125002
#        135417
#        147422
#        160270
#        170442
#        181120
#
# Disc length: 2580 seconds
#
# Revision: 3
# Processed by: cddbd v1.5.2PL0 Copyright (c) Steve Scherf et al.
# Submitted via: ExactAudioCopy v0.99pb5
#
DISCID=e00a1210
DTITLE=Elmore James - Crossroads
DYEAR=1996
DGENRE=Blues
TTITLE0=Dust My Broom
TTITLE1=Look On Yonder Wall
TTITLE2=Mean Mistreatin' Mama
TTITLE3=Fine Little Mama
TTITLE4=Got To Move
TTITLE5=Rollin' And Tumblin'
TTITLE6=Coming Home
TTITLE7=It Hurts Me Too
TTITLE8=Standing At The Crossroads
TTITLE9=Every Day I Have The Blues
TTITLE10=I Done Somebody Wrong
TTITLE11=Pickin' The Blues
TTITLE12=Anna Lee
TTITLE13=Sunnyland Train
TTITLE14=One Way Out
TTITLE15=The Sky Is Crying
EXTD=
EXTT0=
EXTT1=
EXTT2=
EXTT3=
EXTT4=
EXTT5=
EXTT6=
EXTT7=
EXTT8=
EXTT9=
EXTT10=
EXTT11=
EXTT12=
EXTT13=
EXTT14=
EXTT15=
PLAYORDER=
